<mxfile host="app.diagrams.net" modified="2021-05-29T19:35:48.465Z" agent="5.0 (Windows NT 10.0; Win64; x64) AppleWebKit/537.36 (KHTML, like Gecko) Chrome/91.0.4472.77 Safari/537.36" etag="oem2G9zE249bl5d1rYWX" version="14.7.3" type="github">
  <diagram id="QovNs_Ew8sgnMcFturPJ" name="Page-1">
    <mxGraphModel dx="1422" dy="774" grid="1" gridSize="10" guides="1" tooltips="1" connect="1" arrows="1" fold="1" page="1" pageScale="1" pageWidth="827" pageHeight="1169" math="0" shadow="0">
      <root>
        <mxCell id="0" />
        <mxCell id="1" parent="0" />
        <mxCell id="4QPDXVxAxMopR4z6ng5S-2" value="&lt;font style=&quot;font-size: 15px&quot;&gt;&lt;b&gt;Vereisten&lt;/b&gt;&lt;/font&gt;" style="rounded=0;whiteSpace=wrap;html=1;fillColor=#f5f5f5;strokeColor=#666666;fontColor=#333333;" vertex="1" parent="1">
          <mxGeometry x="190" y="464" width="120" height="60" as="geometry" />
        </mxCell>
        <mxCell id="4QPDXVxAxMopR4z6ng5S-3" value="" style="shape=flexArrow;endArrow=classic;html=1;fillColor=#e1d5e7;strokeColor=#9673a6;" edge="1" parent="1" source="4QPDXVxAxMopR4z6ng5S-2" target="4QPDXVxAxMopR4z6ng5S-10">
          <mxGeometry width="50" height="50" relative="1" as="geometry">
            <mxPoint x="800" y="690" as="sourcePoint" />
            <mxPoint x="350" y="494" as="targetPoint" />
          </mxGeometry>
        </mxCell>
        <mxCell id="4QPDXVxAxMopR4z6ng5S-7" value="&lt;font style=&quot;font-size: 15px&quot;&gt;&lt;b&gt;Resultaten&lt;/b&gt;&lt;/font&gt;" style="rounded=0;whiteSpace=wrap;html=1;fillColor=#fad9d5;strokeColor=#ae4132;" vertex="1" parent="1">
          <mxGeometry x="520" y="464" width="120" height="60" as="geometry" />
        </mxCell>
        <mxCell id="4QPDXVxAxMopR4z6ng5S-8" value="" style="shape=flexArrow;endArrow=classic;html=1;fillColor=#e1d5e7;strokeColor=#9673a6;" edge="1" parent="1" source="4QPDXVxAxMopR4z6ng5S-7" target="4QPDXVxAxMopR4z6ng5S-10">
          <mxGeometry width="50" height="50" relative="1" as="geometry">
            <mxPoint x="480" y="493.66" as="sourcePoint" />
            <mxPoint x="478" y="494" as="targetPoint" />
          </mxGeometry>
        </mxCell>
        <mxCell id="4QPDXVxAxMopR4z6ng5S-10" value="" style="outlineConnect=0;dashed=0;verticalLabelPosition=bottom;verticalAlign=top;align=center;html=1;fontSize=12;fontStyle=0;aspect=fixed;pointerEvents=1;shape=mxgraph.aws4.checklist;strokeColor=#6F0000;fontColor=#ffffff;fillColor=#000000;" vertex="1" parent="1">
          <mxGeometry x="380.5" y="455" width="66" height="78" as="geometry" />
        </mxCell>
        <mxCell id="4QPDXVxAxMopR4z6ng5S-12" value="&lt;font style=&quot;font-size: 15px&quot;&gt;&lt;b&gt;Vereisten gehaald?&lt;/b&gt;&lt;/font&gt;" style="rounded=0;whiteSpace=wrap;html=1;fillColor=#fff2cc;strokeColor=#d6b656;" vertex="1" parent="1">
          <mxGeometry x="354" y="340" width="120" height="60" as="geometry" />
        </mxCell>
        <mxCell id="4QPDXVxAxMopR4z6ng5S-13" value="" style="shape=flexArrow;endArrow=classic;html=1;entryX=0.5;entryY=1;entryDx=0;entryDy=0;fillColor=#e1d5e7;strokeColor=#9673a6;" edge="1" parent="1" source="4QPDXVxAxMopR4z6ng5S-10" target="4QPDXVxAxMopR4z6ng5S-12">
          <mxGeometry width="50" height="50" relative="1" as="geometry">
            <mxPoint x="460" y="500" as="sourcePoint" />
            <mxPoint x="510" y="450" as="targetPoint" />
          </mxGeometry>
        </mxCell>
      </root>
    </mxGraphModel>
  </diagram>
</mxfile>
